<mxfile host="65bd71144e">
    <diagram id="NbMsAhpAhotp3Z_yGmmY" name="第 1 页">
        <mxGraphModel dx="890" dy="679" grid="1" gridSize="10" guides="1" tooltips="1" connect="1" arrows="1" fold="1" page="1" pageScale="1" pageWidth="827" pageHeight="1169" math="0" shadow="0">
            <root>
                <mxCell id="0"/>
                <mxCell id="1" parent="0"/>
                <mxCell id="3" value="Broker Iface" style="shape=table;startSize=30;container=1;collapsible=0;childLayout=tableLayout;fixedRows=1;rowLines=1;fontStyle=1;align=center;pointerEvents=1;resizeLast=0;resizeLastRow=1;rounded=0;sketch=0;shadow=0;" parent="1" vertex="1">
                    <mxGeometry x="139" y="40" width="550" height="560" as="geometry"/>
                </mxCell>
                <mxCell id="4" value="" style="shape=partialRectangle;html=1;whiteSpace=wrap;collapsible=0;dropTarget=0;pointerEvents=1;fillColor=none;top=0;left=0;bottom=1;right=0;points=[[0,0.5],[1,0.5]];portConstraint=eastwest;" parent="3" vertex="1">
                    <mxGeometry y="30" width="550" height="30" as="geometry"/>
                </mxCell>
                <mxCell id="31" value="函数名" style="shape=partialRectangle;html=1;whiteSpace=wrap;connectable=0;fillColor=none;top=0;left=0;bottom=0;right=0;overflow=hidden;pointerEvents=1;" parent="4" vertex="1">
                    <mxGeometry width="130" height="30" as="geometry">
                        <mxRectangle width="130" height="30" as="alternateBounds"/>
                    </mxGeometry>
                </mxCell>
                <mxCell id="5" value="功能说明" style="shape=partialRectangle;html=1;whiteSpace=wrap;connectable=0;fillColor=none;top=0;left=0;bottom=0;right=0;overflow=hidden;pointerEvents=1;align=center;" parent="4" vertex="1">
                    <mxGeometry x="130" width="340" height="30" as="geometry">
                        <mxRectangle width="340" height="30" as="alternateBounds"/>
                    </mxGeometry>
                </mxCell>
                <mxCell id="6" value="注解" style="shape=partialRectangle;html=1;whiteSpace=wrap;connectable=0;fillColor=none;top=0;left=0;bottom=0;right=0;align=center;spacingLeft=6;overflow=hidden;pointerEvents=1;" parent="4" vertex="1">
                    <mxGeometry x="470" width="80" height="30" as="geometry">
                        <mxRectangle width="80" height="30" as="alternateBounds"/>
                    </mxGeometry>
                </mxCell>
                <mxCell id="57" style="shape=partialRectangle;html=1;whiteSpace=wrap;collapsible=0;dropTarget=0;pointerEvents=1;fillColor=none;top=0;left=0;bottom=1;right=0;points=[[0,0.5],[1,0.5]];portConstraint=eastwest;" parent="3" vertex="1">
                    <mxGeometry y="60" width="550" height="50" as="geometry"/>
                </mxCell>
                <mxCell id="58" value="GetConfig()&lt;span style=&quot;white-space: pre&quot;&gt;&#9;&lt;/span&gt;" style="shape=partialRectangle;html=1;whiteSpace=wrap;connectable=0;fillColor=none;top=0;left=0;bottom=0;right=0;overflow=hidden;pointerEvents=1;" parent="57" vertex="1">
                    <mxGeometry width="130" height="50" as="geometry">
                        <mxRectangle width="130" height="50" as="alternateBounds"/>
                    </mxGeometry>
                </mxCell>
                <mxCell id="59" value="获得Broker的配置信息，包括但不限于Broker后端实例，Backend后端实例等等。" style="shape=partialRectangle;html=1;whiteSpace=wrap;connectable=0;fillColor=none;top=0;left=0;bottom=0;right=0;overflow=hidden;pointerEvents=1;align=left;" parent="57" vertex="1">
                    <mxGeometry x="130" width="340" height="50" as="geometry">
                        <mxRectangle width="340" height="50" as="alternateBounds"/>
                    </mxGeometry>
                </mxCell>
                <mxCell id="60" value="无" style="shape=partialRectangle;html=1;whiteSpace=wrap;connectable=0;fillColor=none;top=0;left=0;bottom=0;right=0;align=center;spacingLeft=6;overflow=hidden;pointerEvents=1;" parent="57" vertex="1">
                    <mxGeometry x="470" width="80" height="50" as="geometry">
                        <mxRectangle width="80" height="50" as="alternateBounds"/>
                    </mxGeometry>
                </mxCell>
                <mxCell id="83" style="shape=partialRectangle;html=1;whiteSpace=wrap;collapsible=0;dropTarget=0;pointerEvents=1;fillColor=none;top=0;left=0;bottom=1;right=0;points=[[0,0.5],[1,0.5]];portConstraint=eastwest;" parent="3" vertex="1">
                    <mxGeometry y="110" width="550" height="50" as="geometry"/>
                </mxCell>
                <mxCell id="84" value="SetRegistered-TaskName()" style="shape=partialRectangle;html=1;whiteSpace=wrap;connectable=0;fillColor=none;top=0;left=0;bottom=0;right=0;overflow=hidden;pointerEvents=1;" parent="83" vertex="1">
                    <mxGeometry width="130" height="50" as="geometry">
                        <mxRectangle width="130" height="50" as="alternateBounds"/>
                    </mxGeometry>
                </mxCell>
                <mxCell id="85" value="更改已经注册的任务名字。" style="shape=partialRectangle;html=1;whiteSpace=wrap;connectable=0;fillColor=none;top=0;left=0;bottom=0;right=0;overflow=hidden;pointerEvents=1;align=left;" parent="83" vertex="1">
                    <mxGeometry x="130" width="340" height="50" as="geometry">
                        <mxRectangle width="340" height="50" as="alternateBounds"/>
                    </mxGeometry>
                </mxCell>
                <mxCell id="86" value="&lt;span&gt;无&lt;/span&gt;" style="shape=partialRectangle;html=1;whiteSpace=wrap;connectable=0;fillColor=none;top=0;left=0;bottom=0;right=0;align=center;spacingLeft=6;overflow=hidden;pointerEvents=1;" parent="83" vertex="1">
                    <mxGeometry x="470" width="80" height="50" as="geometry">
                        <mxRectangle width="80" height="50" as="alternateBounds"/>
                    </mxGeometry>
                </mxCell>
                <mxCell id="120" style="shape=partialRectangle;html=1;whiteSpace=wrap;collapsible=0;dropTarget=0;pointerEvents=1;fillColor=none;top=0;left=0;bottom=1;right=0;points=[[0,0.5],[1,0.5]];portConstraint=eastwest;" parent="3" vertex="1">
                    <mxGeometry y="160" width="550" height="50" as="geometry"/>
                </mxCell>
                <mxCell id="121" value="IsTaskRegistered()" style="shape=partialRectangle;html=1;whiteSpace=wrap;connectable=0;fillColor=none;top=0;left=0;bottom=0;right=0;overflow=hidden;pointerEvents=1;" parent="120" vertex="1">
                    <mxGeometry width="130" height="50" as="geometry">
                        <mxRectangle width="130" height="50" as="alternateBounds"/>
                    </mxGeometry>
                </mxCell>
                <mxCell id="122" value="任务是否注册。" style="shape=partialRectangle;html=1;whiteSpace=wrap;connectable=0;fillColor=none;top=0;left=0;bottom=0;right=0;overflow=hidden;pointerEvents=1;align=left;" parent="120" vertex="1">
                    <mxGeometry x="130" width="340" height="50" as="geometry">
                        <mxRectangle width="340" height="50" as="alternateBounds"/>
                    </mxGeometry>
                </mxCell>
                <mxCell id="123" value="&lt;span&gt;无&lt;/span&gt;" style="shape=partialRectangle;html=1;whiteSpace=wrap;connectable=0;fillColor=none;top=0;left=0;bottom=0;right=0;align=center;spacingLeft=6;overflow=hidden;pointerEvents=1;" parent="120" vertex="1">
                    <mxGeometry x="470" width="80" height="50" as="geometry">
                        <mxRectangle width="80" height="50" as="alternateBounds"/>
                    </mxGeometry>
                </mxCell>
                <mxCell id="116" style="shape=partialRectangle;html=1;whiteSpace=wrap;collapsible=0;dropTarget=0;pointerEvents=1;fillColor=none;top=0;left=0;bottom=1;right=0;points=[[0,0.5],[1,0.5]];portConstraint=eastwest;" parent="3" vertex="1">
                    <mxGeometry y="210" width="550" height="50" as="geometry"/>
                </mxCell>
                <mxCell id="117" value="StartConsuming()" style="shape=partialRectangle;html=1;whiteSpace=wrap;connectable=0;fillColor=none;top=0;left=0;bottom=0;right=0;overflow=hidden;pointerEvents=1;" parent="116" vertex="1">
                    <mxGeometry width="130" height="50" as="geometry">
                        <mxRectangle width="130" height="50" as="alternateBounds"/>
                    </mxGeometry>
                </mxCell>
                <mxCell id="118" value="开始从Broker获得新任务，并调用Worker.Process()处理。" style="shape=partialRectangle;html=1;whiteSpace=wrap;connectable=0;fillColor=none;top=0;left=0;bottom=0;right=0;overflow=hidden;pointerEvents=1;align=left;" parent="116" vertex="1">
                    <mxGeometry x="130" width="340" height="50" as="geometry">
                        <mxRectangle width="340" height="50" as="alternateBounds"/>
                    </mxGeometry>
                </mxCell>
                <mxCell id="119" value="&lt;span&gt;无&lt;/span&gt;" style="shape=partialRectangle;html=1;whiteSpace=wrap;connectable=0;fillColor=none;top=0;left=0;bottom=0;right=0;align=center;spacingLeft=6;overflow=hidden;pointerEvents=1;" parent="116" vertex="1">
                    <mxGeometry x="470" width="80" height="50" as="geometry">
                        <mxRectangle width="80" height="50" as="alternateBounds"/>
                    </mxGeometry>
                </mxCell>
                <mxCell id="112" style="shape=partialRectangle;html=1;whiteSpace=wrap;collapsible=0;dropTarget=0;pointerEvents=1;fillColor=none;top=0;left=0;bottom=1;right=0;points=[[0,0.5],[1,0.5]];portConstraint=eastwest;" parent="3" vertex="1">
                    <mxGeometry y="260" width="550" height="50" as="geometry"/>
                </mxCell>
                <mxCell id="113" value="StopConsuming()" style="shape=partialRectangle;html=1;whiteSpace=wrap;connectable=0;fillColor=none;top=0;left=0;bottom=0;right=0;overflow=hidden;pointerEvents=1;" parent="112" vertex="1">
                    <mxGeometry width="130" height="50" as="geometry">
                        <mxRectangle width="130" height="50" as="alternateBounds"/>
                    </mxGeometry>
                </mxCell>
                <mxCell id="114" value="暂停从Broker获得新任务，优雅地等待正在处理的任务完成。" style="shape=partialRectangle;html=1;whiteSpace=wrap;connectable=0;fillColor=none;top=0;left=0;bottom=0;right=0;overflow=hidden;pointerEvents=1;align=left;" parent="112" vertex="1">
                    <mxGeometry x="130" width="340" height="50" as="geometry">
                        <mxRectangle width="340" height="50" as="alternateBounds"/>
                    </mxGeometry>
                </mxCell>
                <mxCell id="115" value="&lt;span&gt;无&lt;/span&gt;" style="shape=partialRectangle;html=1;whiteSpace=wrap;connectable=0;fillColor=none;top=0;left=0;bottom=0;right=0;align=center;spacingLeft=6;overflow=hidden;pointerEvents=1;" parent="112" vertex="1">
                    <mxGeometry x="470" width="80" height="50" as="geometry">
                        <mxRectangle width="80" height="50" as="alternateBounds"/>
                    </mxGeometry>
                </mxCell>
                <mxCell id="108" style="shape=partialRectangle;html=1;whiteSpace=wrap;collapsible=0;dropTarget=0;pointerEvents=1;fillColor=none;top=0;left=0;bottom=1;right=0;points=[[0,0.5],[1,0.5]];portConstraint=eastwest;" parent="3" vertex="1">
                    <mxGeometry y="310" width="550" height="50" as="geometry"/>
                </mxCell>
                <mxCell id="109" value="Publish()" style="shape=partialRectangle;html=1;whiteSpace=wrap;connectable=0;fillColor=none;top=0;left=0;bottom=0;right=0;overflow=hidden;pointerEvents=1;" parent="108" vertex="1">
                    <mxGeometry width="130" height="50" as="geometry">
                        <mxRectangle width="130" height="50" as="alternateBounds"/>
                    </mxGeometry>
                </mxCell>
                <mxCell id="110" value="将新任务发布到Broker。" style="shape=partialRectangle;html=1;whiteSpace=wrap;connectable=0;fillColor=none;top=0;left=0;bottom=0;right=0;overflow=hidden;pointerEvents=1;align=left;" parent="108" vertex="1">
                    <mxGeometry x="130" width="340" height="50" as="geometry">
                        <mxRectangle width="340" height="50" as="alternateBounds"/>
                    </mxGeometry>
                </mxCell>
                <mxCell id="111" value="&lt;span&gt;无&lt;/span&gt;" style="shape=partialRectangle;html=1;whiteSpace=wrap;connectable=0;fillColor=none;top=0;left=0;bottom=0;right=0;align=center;spacingLeft=6;overflow=hidden;pointerEvents=1;" parent="108" vertex="1">
                    <mxGeometry x="470" width="80" height="50" as="geometry">
                        <mxRectangle width="80" height="50" as="alternateBounds"/>
                    </mxGeometry>
                </mxCell>
                <mxCell id="104" style="shape=partialRectangle;html=1;whiteSpace=wrap;collapsible=0;dropTarget=0;pointerEvents=1;fillColor=none;top=0;left=0;bottom=1;right=0;points=[[0,0.5],[1,0.5]];portConstraint=eastwest;" parent="3" vertex="1">
                    <mxGeometry y="360" width="550" height="50" as="geometry"/>
                </mxCell>
                <mxCell id="105" value="GetPendingTasks()" style="shape=partialRectangle;html=1;whiteSpace=wrap;connectable=0;fillColor=none;top=0;left=0;bottom=0;right=0;overflow=hidden;pointerEvents=1;" parent="104" vertex="1">
                    <mxGeometry width="130" height="50" as="geometry">
                        <mxRectangle width="130" height="50" as="alternateBounds"/>
                    </mxGeometry>
                </mxCell>
                <mxCell id="106" value="&lt;span&gt;获取正处于Pending状态的任务，详见Backend任务状态说明。&lt;/span&gt;" style="shape=partialRectangle;html=1;whiteSpace=wrap;connectable=0;fillColor=none;top=0;left=0;bottom=0;right=0;overflow=hidden;pointerEvents=1;align=left;" parent="104" vertex="1">
                    <mxGeometry x="130" width="340" height="50" as="geometry">
                        <mxRectangle width="340" height="50" as="alternateBounds"/>
                    </mxGeometry>
                </mxCell>
                <mxCell id="107" value="无" style="shape=partialRectangle;html=1;whiteSpace=wrap;connectable=0;fillColor=none;top=0;left=0;bottom=0;right=0;align=center;spacingLeft=6;overflow=hidden;pointerEvents=1;" parent="104" vertex="1">
                    <mxGeometry x="470" width="80" height="50" as="geometry">
                        <mxRectangle width="80" height="50" as="alternateBounds"/>
                    </mxGeometry>
                </mxCell>
                <mxCell id="100" style="shape=partialRectangle;html=1;whiteSpace=wrap;collapsible=0;dropTarget=0;pointerEvents=1;fillColor=none;top=0;left=0;bottom=1;right=0;points=[[0,0.5],[1,0.5]];portConstraint=eastwest;" parent="3" vertex="1">
                    <mxGeometry y="410" width="550" height="50" as="geometry"/>
                </mxCell>
                <mxCell id="101" value="GetDelayedTasks()" style="shape=partialRectangle;html=1;whiteSpace=wrap;connectable=0;fillColor=none;top=0;left=0;bottom=0;right=0;overflow=hidden;pointerEvents=1;" parent="100" vertex="1">
                    <mxGeometry width="130" height="50" as="geometry">
                        <mxRectangle width="130" height="50" as="alternateBounds"/>
                    </mxGeometry>
                </mxCell>
                <mxCell id="102" value="发布延迟任务。" style="shape=partialRectangle;html=1;whiteSpace=wrap;connectable=0;fillColor=none;top=0;left=0;bottom=0;right=0;overflow=hidden;pointerEvents=1;align=left;" parent="100" vertex="1">
                    <mxGeometry x="130" width="340" height="50" as="geometry">
                        <mxRectangle width="340" height="50" as="alternateBounds"/>
                    </mxGeometry>
                </mxCell>
                <mxCell id="103" value="未实现" style="shape=partialRectangle;html=1;whiteSpace=wrap;connectable=0;fillColor=none;top=0;left=0;bottom=0;right=0;align=center;spacingLeft=6;overflow=hidden;pointerEvents=1;" parent="100" vertex="1">
                    <mxGeometry x="470" width="80" height="50" as="geometry">
                        <mxRectangle width="80" height="50" as="alternateBounds"/>
                    </mxGeometry>
                </mxCell>
                <mxCell id="128" style="shape=partialRectangle;html=1;whiteSpace=wrap;collapsible=0;dropTarget=0;pointerEvents=1;fillColor=none;top=0;left=0;bottom=1;right=0;points=[[0,0.5],[1,0.5]];portConstraint=eastwest;" parent="3" vertex="1">
                    <mxGeometry y="460" width="550" height="50" as="geometry"/>
                </mxCell>
                <mxCell id="129" value="AdjustRoutingKey()" style="shape=partialRectangle;html=1;whiteSpace=wrap;connectable=0;fillColor=none;top=0;left=0;bottom=0;right=0;overflow=hidden;pointerEvents=1;" parent="128" vertex="1">
                    <mxGeometry width="130" height="50" as="geometry">
                        <mxRectangle width="130" height="50" as="alternateBounds"/>
                    </mxGeometry>
                </mxCell>
                <mxCell id="130" value="设置任务路由键。" style="shape=partialRectangle;html=1;whiteSpace=wrap;connectable=0;fillColor=none;top=0;left=0;bottom=0;right=0;overflow=hidden;pointerEvents=1;align=left;" parent="128" vertex="1">
                    <mxGeometry x="130" width="340" height="50" as="geometry">
                        <mxRectangle width="340" height="50" as="alternateBounds"/>
                    </mxGeometry>
                </mxCell>
                <mxCell id="131" value="仅AMQP" style="shape=partialRectangle;html=1;whiteSpace=wrap;connectable=0;fillColor=none;top=0;left=0;bottom=0;right=0;align=center;spacingLeft=6;overflow=hidden;pointerEvents=1;" parent="128" vertex="1">
                    <mxGeometry x="470" width="80" height="50" as="geometry">
                        <mxRectangle width="80" height="50" as="alternateBounds"/>
                    </mxGeometry>
                </mxCell>
                <mxCell id="124" style="shape=partialRectangle;html=1;whiteSpace=wrap;collapsible=0;dropTarget=0;pointerEvents=1;fillColor=none;top=0;left=0;bottom=1;right=0;points=[[0,0.5],[1,0.5]];portConstraint=eastwest;" parent="3" vertex="1">
                    <mxGeometry y="510" width="550" height="50" as="geometry"/>
                </mxCell>
                <mxCell id="125" value="TestConnect()" style="shape=partialRectangle;html=1;whiteSpace=wrap;connectable=0;fillColor=none;top=0;left=0;bottom=0;right=0;overflow=hidden;pointerEvents=1;" parent="124" vertex="1">
                    <mxGeometry width="130" height="50" as="geometry">
                        <mxRectangle width="130" height="50" as="alternateBounds"/>
                    </mxGeometry>
                </mxCell>
                <mxCell id="126" value="测试是否能成功连接后台Broker实例。" style="shape=partialRectangle;html=1;whiteSpace=wrap;connectable=0;fillColor=none;top=0;left=0;bottom=0;right=0;overflow=hidden;pointerEvents=1;align=left;" parent="124" vertex="1">
                    <mxGeometry x="130" width="340" height="50" as="geometry">
                        <mxRectangle width="340" height="50" as="alternateBounds"/>
                    </mxGeometry>
                </mxCell>
                <mxCell id="127" value="无" style="shape=partialRectangle;html=1;whiteSpace=wrap;connectable=0;fillColor=none;top=0;left=0;bottom=0;right=0;align=center;spacingLeft=6;overflow=hidden;pointerEvents=1;" parent="124" vertex="1">
                    <mxGeometry x="470" width="80" height="50" as="geometry">
                        <mxRectangle width="80" height="50" as="alternateBounds"/>
                    </mxGeometry>
                </mxCell>
                <mxCell id="87" value="Backend Iface" style="shape=table;startSize=30;container=1;collapsible=0;childLayout=tableLayout;fixedRows=1;rowLines=1;fontStyle=1;align=center;pointerEvents=1;resizeLast=0;resizeLastRow=1;rounded=0;sketch=0;shadow=0;" parent="1" vertex="1">
                    <mxGeometry x="139" y="620" width="550" height="810" as="geometry"/>
                </mxCell>
                <mxCell id="88" value="" style="shape=partialRectangle;html=1;whiteSpace=wrap;collapsible=0;dropTarget=0;pointerEvents=1;fillColor=none;top=0;left=0;bottom=1;right=0;points=[[0,0.5],[1,0.5]];portConstraint=eastwest;" parent="87" vertex="1">
                    <mxGeometry y="30" width="550" height="30" as="geometry"/>
                </mxCell>
                <mxCell id="89" value="函数名" style="shape=partialRectangle;html=1;whiteSpace=wrap;connectable=0;fillColor=none;top=0;left=0;bottom=0;right=0;overflow=hidden;pointerEvents=1;" parent="88" vertex="1">
                    <mxGeometry width="130" height="30" as="geometry">
                        <mxRectangle width="130" height="30" as="alternateBounds"/>
                    </mxGeometry>
                </mxCell>
                <mxCell id="90" value="功能说明" style="shape=partialRectangle;html=1;whiteSpace=wrap;connectable=0;fillColor=none;top=0;left=0;bottom=0;right=0;overflow=hidden;pointerEvents=1;align=center;" parent="88" vertex="1">
                    <mxGeometry x="130" width="340" height="30" as="geometry">
                        <mxRectangle width="340" height="30" as="alternateBounds"/>
                    </mxGeometry>
                </mxCell>
                <mxCell id="91" value="注解" style="shape=partialRectangle;html=1;whiteSpace=wrap;connectable=0;fillColor=none;top=0;left=0;bottom=0;right=0;align=center;spacingLeft=6;overflow=hidden;pointerEvents=1;" parent="88" vertex="1">
                    <mxGeometry x="470" width="80" height="30" as="geometry">
                        <mxRectangle width="80" height="30" as="alternateBounds"/>
                    </mxGeometry>
                </mxCell>
                <mxCell id="92" style="shape=partialRectangle;html=1;whiteSpace=wrap;collapsible=0;dropTarget=0;pointerEvents=1;fillColor=none;top=0;left=0;bottom=1;right=0;points=[[0,0.5],[1,0.5]];portConstraint=eastwest;" parent="87" vertex="1">
                    <mxGeometry y="60" width="550" height="50" as="geometry"/>
                </mxCell>
                <mxCell id="93" value="InitGroup()" style="shape=partialRectangle;html=1;whiteSpace=wrap;connectable=0;fillColor=none;top=0;left=0;bottom=0;right=0;overflow=hidden;pointerEvents=1;" parent="92" vertex="1">
                    <mxGeometry width="130" height="50" as="geometry">
                        <mxRectangle width="130" height="50" as="alternateBounds"/>
                    </mxGeometry>
                </mxCell>
                <mxCell id="94" value="&lt;span&gt;创建一个组，并将组信息保存到Backend。&lt;/span&gt;" style="shape=partialRectangle;html=1;whiteSpace=wrap;connectable=0;fillColor=none;top=0;left=0;bottom=0;right=0;overflow=hidden;pointerEvents=1;align=left;" parent="92" vertex="1">
                    <mxGeometry x="130" width="340" height="50" as="geometry">
                        <mxRectangle width="340" height="50" as="alternateBounds"/>
                    </mxGeometry>
                </mxCell>
                <mxCell id="95" value="无" style="shape=partialRectangle;html=1;whiteSpace=wrap;connectable=0;fillColor=none;top=0;left=0;bottom=0;right=0;align=center;spacingLeft=6;overflow=hidden;pointerEvents=1;" parent="92" vertex="1">
                    <mxGeometry x="470" width="80" height="50" as="geometry">
                        <mxRectangle width="80" height="50" as="alternateBounds"/>
                    </mxGeometry>
                </mxCell>
                <mxCell id="96" style="shape=partialRectangle;html=1;whiteSpace=wrap;collapsible=0;dropTarget=0;pointerEvents=1;fillColor=none;top=0;left=0;bottom=1;right=0;points=[[0,0.5],[1,0.5]];portConstraint=eastwest;" parent="87" vertex="1">
                    <mxGeometry y="110" width="550" height="50" as="geometry"/>
                </mxCell>
                <mxCell id="97" value="GroupCompleted()" style="shape=partialRectangle;html=1;whiteSpace=wrap;connectable=0;fillColor=none;top=0;left=0;bottom=0;right=0;overflow=hidden;pointerEvents=1;" parent="96" vertex="1">
                    <mxGeometry width="130" height="50" as="geometry">
                        <mxRectangle width="130" height="50" as="alternateBounds"/>
                    </mxGeometry>
                </mxCell>
                <mxCell id="98" value="更新组完成状态到Backend。" style="shape=partialRectangle;html=1;whiteSpace=wrap;connectable=0;fillColor=none;top=0;left=0;bottom=0;right=0;overflow=hidden;pointerEvents=1;align=left;" parent="96" vertex="1">
                    <mxGeometry x="130" width="340" height="50" as="geometry">
                        <mxRectangle width="340" height="50" as="alternateBounds"/>
                    </mxGeometry>
                </mxCell>
                <mxCell id="99" value="无" style="shape=partialRectangle;html=1;whiteSpace=wrap;connectable=0;fillColor=none;top=0;left=0;bottom=0;right=0;align=center;spacingLeft=6;overflow=hidden;pointerEvents=1;" parent="96" vertex="1">
                    <mxGeometry x="470" width="80" height="50" as="geometry">
                        <mxRectangle width="80" height="50" as="alternateBounds"/>
                    </mxGeometry>
                </mxCell>
                <mxCell id="172" style="shape=partialRectangle;html=1;whiteSpace=wrap;collapsible=0;dropTarget=0;pointerEvents=1;fillColor=none;top=0;left=0;bottom=1;right=0;points=[[0,0.5],[1,0.5]];portConstraint=eastwest;" parent="87" vertex="1">
                    <mxGeometry y="160" width="550" height="50" as="geometry"/>
                </mxCell>
                <mxCell id="173" value="GroupTaskStates()" style="shape=partialRectangle;html=1;whiteSpace=wrap;connectable=0;fillColor=none;top=0;left=0;bottom=0;right=0;overflow=hidden;pointerEvents=1;" parent="172" vertex="1">
                    <mxGeometry width="130" height="50" as="geometry">
                        <mxRectangle width="130" height="50" as="alternateBounds"/>
                    </mxGeometry>
                </mxCell>
                <mxCell id="174" value="获取组所有任务状态信息。" style="shape=partialRectangle;html=1;whiteSpace=wrap;connectable=0;fillColor=none;top=0;left=0;bottom=0;right=0;overflow=hidden;pointerEvents=1;align=left;" parent="172" vertex="1">
                    <mxGeometry x="130" width="340" height="50" as="geometry">
                        <mxRectangle width="340" height="50" as="alternateBounds"/>
                    </mxGeometry>
                </mxCell>
                <mxCell id="175" value="&lt;span&gt;无&lt;/span&gt;" style="shape=partialRectangle;html=1;whiteSpace=wrap;connectable=0;fillColor=none;top=0;left=0;bottom=0;right=0;align=center;spacingLeft=6;overflow=hidden;pointerEvents=1;" parent="172" vertex="1">
                    <mxGeometry x="470" width="80" height="50" as="geometry">
                        <mxRectangle width="80" height="50" as="alternateBounds"/>
                    </mxGeometry>
                </mxCell>
                <mxCell id="168" style="shape=partialRectangle;html=1;whiteSpace=wrap;collapsible=0;dropTarget=0;pointerEvents=1;fillColor=none;top=0;left=0;bottom=1;right=0;points=[[0,0.5],[1,0.5]];portConstraint=eastwest;" parent="87" vertex="1">
                    <mxGeometry y="210" width="550" height="50" as="geometry"/>
                </mxCell>
                <mxCell id="169" value="TriggerChord()" style="shape=partialRectangle;html=1;whiteSpace=wrap;connectable=0;fillColor=none;top=0;left=0;bottom=0;right=0;overflow=hidden;pointerEvents=1;" parent="168" vertex="1">
                    <mxGeometry width="130" height="50" as="geometry">
                        <mxRectangle width="130" height="50" as="alternateBounds"/>
                    </mxGeometry>
                </mxCell>
                <mxCell id="170" value="更新Chord的状态为已触发。" style="shape=partialRectangle;html=1;whiteSpace=wrap;connectable=0;fillColor=none;top=0;left=0;bottom=0;right=0;overflow=hidden;pointerEvents=1;align=left;" parent="168" vertex="1">
                    <mxGeometry x="130" width="340" height="50" as="geometry">
                        <mxRectangle width="340" height="50" as="alternateBounds"/>
                    </mxGeometry>
                </mxCell>
                <mxCell id="171" value="&lt;span&gt;无&lt;/span&gt;" style="shape=partialRectangle;html=1;whiteSpace=wrap;connectable=0;fillColor=none;top=0;left=0;bottom=0;right=0;align=center;spacingLeft=6;overflow=hidden;pointerEvents=1;" parent="168" vertex="1">
                    <mxGeometry x="470" width="80" height="50" as="geometry">
                        <mxRectangle width="80" height="50" as="alternateBounds"/>
                    </mxGeometry>
                </mxCell>
                <mxCell id="164" style="shape=partialRectangle;html=1;whiteSpace=wrap;collapsible=0;dropTarget=0;pointerEvents=1;fillColor=none;top=0;left=0;bottom=1;right=0;points=[[0,0.5],[1,0.5]];portConstraint=eastwest;" parent="87" vertex="1">
                    <mxGeometry y="260" width="550" height="50" as="geometry"/>
                </mxCell>
                <mxCell id="165" value="SetStatePending()" style="shape=partialRectangle;html=1;whiteSpace=wrap;connectable=0;fillColor=none;top=0;left=0;bottom=0;right=0;overflow=hidden;pointerEvents=1;" parent="164" vertex="1">
                    <mxGeometry width="130" height="50" as="geometry">
                        <mxRectangle width="130" height="50" as="alternateBounds"/>
                    </mxGeometry>
                </mxCell>
                <mxCell id="166" value="更新任务状态为等待。" style="shape=partialRectangle;html=1;whiteSpace=wrap;connectable=0;fillColor=none;top=0;left=0;bottom=0;right=0;overflow=hidden;pointerEvents=1;align=left;" parent="164" vertex="1">
                    <mxGeometry x="130" width="340" height="50" as="geometry">
                        <mxRectangle width="340" height="50" as="alternateBounds"/>
                    </mxGeometry>
                </mxCell>
                <mxCell id="167" value="&lt;span&gt;无&lt;/span&gt;" style="shape=partialRectangle;html=1;whiteSpace=wrap;connectable=0;fillColor=none;top=0;left=0;bottom=0;right=0;align=center;spacingLeft=6;overflow=hidden;pointerEvents=1;" parent="164" vertex="1">
                    <mxGeometry x="470" width="80" height="50" as="geometry">
                        <mxRectangle width="80" height="50" as="alternateBounds"/>
                    </mxGeometry>
                </mxCell>
                <mxCell id="160" style="shape=partialRectangle;html=1;whiteSpace=wrap;collapsible=0;dropTarget=0;pointerEvents=1;fillColor=none;top=0;left=0;bottom=1;right=0;points=[[0,0.5],[1,0.5]];portConstraint=eastwest;" parent="87" vertex="1">
                    <mxGeometry y="310" width="550" height="50" as="geometry"/>
                </mxCell>
                <mxCell id="161" value="SetStateReceived()" style="shape=partialRectangle;html=1;whiteSpace=wrap;connectable=0;fillColor=none;top=0;left=0;bottom=0;right=0;overflow=hidden;pointerEvents=1;" parent="160" vertex="1">
                    <mxGeometry width="130" height="50" as="geometry">
                        <mxRectangle width="130" height="50" as="alternateBounds"/>
                    </mxGeometry>
                </mxCell>
                <mxCell id="162" value="&lt;span&gt;更新任务状态为已接受。&lt;/span&gt;" style="shape=partialRectangle;html=1;whiteSpace=wrap;connectable=0;fillColor=none;top=0;left=0;bottom=0;right=0;overflow=hidden;pointerEvents=1;align=left;" parent="160" vertex="1">
                    <mxGeometry x="130" width="340" height="50" as="geometry">
                        <mxRectangle width="340" height="50" as="alternateBounds"/>
                    </mxGeometry>
                </mxCell>
                <mxCell id="163" value="&lt;span&gt;无&lt;/span&gt;" style="shape=partialRectangle;html=1;whiteSpace=wrap;connectable=0;fillColor=none;top=0;left=0;bottom=0;right=0;align=center;spacingLeft=6;overflow=hidden;pointerEvents=1;" parent="160" vertex="1">
                    <mxGeometry x="470" width="80" height="50" as="geometry">
                        <mxRectangle width="80" height="50" as="alternateBounds"/>
                    </mxGeometry>
                </mxCell>
                <mxCell id="156" style="shape=partialRectangle;html=1;whiteSpace=wrap;collapsible=0;dropTarget=0;pointerEvents=1;fillColor=none;top=0;left=0;bottom=1;right=0;points=[[0,0.5],[1,0.5]];portConstraint=eastwest;" parent="87" vertex="1">
                    <mxGeometry y="360" width="550" height="50" as="geometry"/>
                </mxCell>
                <mxCell id="157" value="SetStateStarted()" style="shape=partialRectangle;html=1;whiteSpace=wrap;connectable=0;fillColor=none;top=0;left=0;bottom=0;right=0;overflow=hidden;pointerEvents=1;" parent="156" vertex="1">
                    <mxGeometry width="130" height="50" as="geometry">
                        <mxRectangle width="130" height="50" as="alternateBounds"/>
                    </mxGeometry>
                </mxCell>
                <mxCell id="158" value="&lt;span&gt;更新任务状态为已开始。&lt;/span&gt;" style="shape=partialRectangle;html=1;whiteSpace=wrap;connectable=0;fillColor=none;top=0;left=0;bottom=0;right=0;overflow=hidden;pointerEvents=1;align=left;" parent="156" vertex="1">
                    <mxGeometry x="130" width="340" height="50" as="geometry">
                        <mxRectangle width="340" height="50" as="alternateBounds"/>
                    </mxGeometry>
                </mxCell>
                <mxCell id="159" value="&lt;span&gt;无&lt;/span&gt;" style="shape=partialRectangle;html=1;whiteSpace=wrap;connectable=0;fillColor=none;top=0;left=0;bottom=0;right=0;align=center;spacingLeft=6;overflow=hidden;pointerEvents=1;" parent="156" vertex="1">
                    <mxGeometry x="470" width="80" height="50" as="geometry">
                        <mxRectangle width="80" height="50" as="alternateBounds"/>
                    </mxGeometry>
                </mxCell>
                <mxCell id="152" style="shape=partialRectangle;html=1;whiteSpace=wrap;collapsible=0;dropTarget=0;pointerEvents=1;fillColor=none;top=0;left=0;bottom=1;right=0;points=[[0,0.5],[1,0.5]];portConstraint=eastwest;" parent="87" vertex="1">
                    <mxGeometry y="410" width="550" height="50" as="geometry"/>
                </mxCell>
                <mxCell id="153" value="SetStateRetry()" style="shape=partialRectangle;html=1;whiteSpace=wrap;connectable=0;fillColor=none;top=0;left=0;bottom=0;right=0;overflow=hidden;pointerEvents=1;" parent="152" vertex="1">
                    <mxGeometry width="130" height="50" as="geometry">
                        <mxRectangle width="130" height="50" as="alternateBounds"/>
                    </mxGeometry>
                </mxCell>
                <mxCell id="154" value="&lt;span&gt;更新任务状态为重试。&lt;/span&gt;" style="shape=partialRectangle;html=1;whiteSpace=wrap;connectable=0;fillColor=none;top=0;left=0;bottom=0;right=0;overflow=hidden;pointerEvents=1;align=left;" parent="152" vertex="1">
                    <mxGeometry x="130" width="340" height="50" as="geometry">
                        <mxRectangle width="340" height="50" as="alternateBounds"/>
                    </mxGeometry>
                </mxCell>
                <mxCell id="155" value="&lt;span&gt;无&lt;/span&gt;" style="shape=partialRectangle;html=1;whiteSpace=wrap;connectable=0;fillColor=none;top=0;left=0;bottom=0;right=0;align=center;spacingLeft=6;overflow=hidden;pointerEvents=1;" parent="152" vertex="1">
                    <mxGeometry x="470" width="80" height="50" as="geometry">
                        <mxRectangle width="80" height="50" as="alternateBounds"/>
                    </mxGeometry>
                </mxCell>
                <mxCell id="148" style="shape=partialRectangle;html=1;whiteSpace=wrap;collapsible=0;dropTarget=0;pointerEvents=1;fillColor=none;top=0;left=0;bottom=1;right=0;points=[[0,0.5],[1,0.5]];portConstraint=eastwest;" parent="87" vertex="1">
                    <mxGeometry y="460" width="550" height="50" as="geometry"/>
                </mxCell>
                <mxCell id="149" value="SetStateSuccess()" style="shape=partialRectangle;html=1;whiteSpace=wrap;connectable=0;fillColor=none;top=0;left=0;bottom=0;right=0;overflow=hidden;pointerEvents=1;" parent="148" vertex="1">
                    <mxGeometry width="130" height="50" as="geometry">
                        <mxRectangle width="130" height="50" as="alternateBounds"/>
                    </mxGeometry>
                </mxCell>
                <mxCell id="150" value="&lt;span&gt;更新任务状态为成功。&lt;/span&gt;" style="shape=partialRectangle;html=1;whiteSpace=wrap;connectable=0;fillColor=none;top=0;left=0;bottom=0;right=0;overflow=hidden;pointerEvents=1;align=left;" parent="148" vertex="1">
                    <mxGeometry x="130" width="340" height="50" as="geometry">
                        <mxRectangle width="340" height="50" as="alternateBounds"/>
                    </mxGeometry>
                </mxCell>
                <mxCell id="151" value="&lt;span&gt;无&lt;/span&gt;" style="shape=partialRectangle;html=1;whiteSpace=wrap;connectable=0;fillColor=none;top=0;left=0;bottom=0;right=0;align=center;spacingLeft=6;overflow=hidden;pointerEvents=1;" parent="148" vertex="1">
                    <mxGeometry x="470" width="80" height="50" as="geometry">
                        <mxRectangle width="80" height="50" as="alternateBounds"/>
                    </mxGeometry>
                </mxCell>
                <mxCell id="144" style="shape=partialRectangle;html=1;whiteSpace=wrap;collapsible=0;dropTarget=0;pointerEvents=1;fillColor=none;top=0;left=0;bottom=1;right=0;points=[[0,0.5],[1,0.5]];portConstraint=eastwest;" parent="87" vertex="1">
                    <mxGeometry y="510" width="550" height="50" as="geometry"/>
                </mxCell>
                <mxCell id="145" value="SetStateFailure()" style="shape=partialRectangle;html=1;whiteSpace=wrap;connectable=0;fillColor=none;top=0;left=0;bottom=0;right=0;overflow=hidden;pointerEvents=1;" parent="144" vertex="1">
                    <mxGeometry width="130" height="50" as="geometry">
                        <mxRectangle width="130" height="50" as="alternateBounds"/>
                    </mxGeometry>
                </mxCell>
                <mxCell id="146" value="&lt;span&gt;更新任务状态为失败。&lt;/span&gt;" style="shape=partialRectangle;html=1;whiteSpace=wrap;connectable=0;fillColor=none;top=0;left=0;bottom=0;right=0;overflow=hidden;pointerEvents=1;align=left;" parent="144" vertex="1">
                    <mxGeometry x="130" width="340" height="50" as="geometry">
                        <mxRectangle width="340" height="50" as="alternateBounds"/>
                    </mxGeometry>
                </mxCell>
                <mxCell id="147" value="&lt;span&gt;无&lt;/span&gt;" style="shape=partialRectangle;html=1;whiteSpace=wrap;connectable=0;fillColor=none;top=0;left=0;bottom=0;right=0;align=center;spacingLeft=6;overflow=hidden;pointerEvents=1;" parent="144" vertex="1">
                    <mxGeometry x="470" width="80" height="50" as="geometry">
                        <mxRectangle width="80" height="50" as="alternateBounds"/>
                    </mxGeometry>
                </mxCell>
                <mxCell id="140" style="shape=partialRectangle;html=1;whiteSpace=wrap;collapsible=0;dropTarget=0;pointerEvents=1;fillColor=none;top=0;left=0;bottom=1;right=0;points=[[0,0.5],[1,0.5]];portConstraint=eastwest;" parent="87" vertex="1">
                    <mxGeometry y="560" width="550" height="50" as="geometry"/>
                </mxCell>
                <mxCell id="141" value="GetState()" style="shape=partialRectangle;html=1;whiteSpace=wrap;connectable=0;fillColor=none;top=0;left=0;bottom=0;right=0;overflow=hidden;pointerEvents=1;" parent="140" vertex="1">
                    <mxGeometry width="130" height="50" as="geometry">
                        <mxRectangle width="130" height="50" as="alternateBounds"/>
                    </mxGeometry>
                </mxCell>
                <mxCell id="142" value="从Backend获取任务状态。" style="shape=partialRectangle;html=1;whiteSpace=wrap;connectable=0;fillColor=none;top=0;left=0;bottom=0;right=0;overflow=hidden;pointerEvents=1;align=left;" parent="140" vertex="1">
                    <mxGeometry x="130" width="340" height="50" as="geometry">
                        <mxRectangle width="340" height="50" as="alternateBounds"/>
                    </mxGeometry>
                </mxCell>
                <mxCell id="143" value="&lt;span&gt;无&lt;/span&gt;" style="shape=partialRectangle;html=1;whiteSpace=wrap;connectable=0;fillColor=none;top=0;left=0;bottom=0;right=0;align=center;spacingLeft=6;overflow=hidden;pointerEvents=1;" parent="140" vertex="1">
                    <mxGeometry x="470" width="80" height="50" as="geometry">
                        <mxRectangle width="80" height="50" as="alternateBounds"/>
                    </mxGeometry>
                </mxCell>
                <mxCell id="136" style="shape=partialRectangle;html=1;whiteSpace=wrap;collapsible=0;dropTarget=0;pointerEvents=1;fillColor=none;top=0;left=0;bottom=1;right=0;points=[[0,0.5],[1,0.5]];portConstraint=eastwest;" parent="87" vertex="1">
                    <mxGeometry y="610" width="550" height="50" as="geometry"/>
                </mxCell>
                <mxCell id="137" value="IsAMQP()" style="shape=partialRectangle;html=1;whiteSpace=wrap;connectable=0;fillColor=none;top=0;left=0;bottom=0;right=0;overflow=hidden;pointerEvents=1;" parent="136" vertex="1">
                    <mxGeometry width="130" height="50" as="geometry">
                        <mxRectangle width="130" height="50" as="alternateBounds"/>
                    </mxGeometry>
                </mxCell>
                <mxCell id="138" value="判断任务后台是否是基于AMQP协议的。" style="shape=partialRectangle;html=1;whiteSpace=wrap;connectable=0;fillColor=none;top=0;left=0;bottom=0;right=0;overflow=hidden;pointerEvents=1;align=left;" parent="136" vertex="1">
                    <mxGeometry x="130" width="340" height="50" as="geometry">
                        <mxRectangle width="340" height="50" as="alternateBounds"/>
                    </mxGeometry>
                </mxCell>
                <mxCell id="139" value="配合清理数据" style="shape=partialRectangle;html=1;whiteSpace=wrap;connectable=0;fillColor=none;top=0;left=0;bottom=0;right=0;align=center;spacingLeft=6;overflow=hidden;pointerEvents=1;" parent="136" vertex="1">
                    <mxGeometry x="470" width="80" height="50" as="geometry">
                        <mxRectangle width="80" height="50" as="alternateBounds"/>
                    </mxGeometry>
                </mxCell>
                <mxCell id="132" style="shape=partialRectangle;html=1;whiteSpace=wrap;collapsible=0;dropTarget=0;pointerEvents=1;fillColor=none;top=0;left=0;bottom=1;right=0;points=[[0,0.5],[1,0.5]];portConstraint=eastwest;" parent="87" vertex="1">
                    <mxGeometry y="660" width="550" height="50" as="geometry"/>
                </mxCell>
                <mxCell id="133" value="PurgeState()" style="shape=partialRectangle;html=1;whiteSpace=wrap;connectable=0;fillColor=none;top=0;left=0;bottom=0;right=0;overflow=hidden;pointerEvents=1;" parent="132" vertex="1">
                    <mxGeometry width="130" height="50" as="geometry">
                        <mxRectangle width="130" height="50" as="alternateBounds"/>
                    </mxGeometry>
                </mxCell>
                <mxCell id="134" value="清除任务状态信息。" style="shape=partialRectangle;html=1;whiteSpace=wrap;connectable=0;fillColor=none;top=0;left=0;bottom=0;right=0;overflow=hidden;pointerEvents=1;align=left;" parent="132" vertex="1">
                    <mxGeometry x="130" width="340" height="50" as="geometry">
                        <mxRectangle width="340" height="50" as="alternateBounds"/>
                    </mxGeometry>
                </mxCell>
                <mxCell id="135" value="&lt;span&gt;无&lt;/span&gt;" style="shape=partialRectangle;html=1;whiteSpace=wrap;connectable=0;fillColor=none;top=0;left=0;bottom=0;right=0;align=center;spacingLeft=6;overflow=hidden;pointerEvents=1;" parent="132" vertex="1">
                    <mxGeometry x="470" width="80" height="50" as="geometry">
                        <mxRectangle width="80" height="50" as="alternateBounds"/>
                    </mxGeometry>
                </mxCell>
                <mxCell id="180" style="shape=partialRectangle;html=1;whiteSpace=wrap;collapsible=0;dropTarget=0;pointerEvents=1;fillColor=none;top=0;left=0;bottom=1;right=0;points=[[0,0.5],[1,0.5]];portConstraint=eastwest;" parent="87" vertex="1">
                    <mxGeometry y="710" width="550" height="50" as="geometry"/>
                </mxCell>
                <mxCell id="181" value="PurgeGroupMeta()" style="shape=partialRectangle;html=1;whiteSpace=wrap;connectable=0;fillColor=none;top=0;left=0;bottom=0;right=0;overflow=hidden;pointerEvents=1;" parent="180" vertex="1">
                    <mxGeometry width="130" height="50" as="geometry">
                        <mxRectangle width="130" height="50" as="alternateBounds"/>
                    </mxGeometry>
                </mxCell>
                <mxCell id="182" value="清除组任务状态信息。" style="shape=partialRectangle;html=1;whiteSpace=wrap;connectable=0;fillColor=none;top=0;left=0;bottom=0;right=0;overflow=hidden;pointerEvents=1;align=left;" parent="180" vertex="1">
                    <mxGeometry x="130" width="340" height="50" as="geometry">
                        <mxRectangle width="340" height="50" as="alternateBounds"/>
                    </mxGeometry>
                </mxCell>
                <mxCell id="183" value="&lt;span&gt;无&lt;/span&gt;" style="shape=partialRectangle;html=1;whiteSpace=wrap;connectable=0;fillColor=none;top=0;left=0;bottom=0;right=0;align=center;spacingLeft=6;overflow=hidden;pointerEvents=1;" parent="180" vertex="1">
                    <mxGeometry x="470" width="80" height="50" as="geometry">
                        <mxRectangle width="80" height="50" as="alternateBounds"/>
                    </mxGeometry>
                </mxCell>
                <mxCell id="176" style="shape=partialRectangle;html=1;whiteSpace=wrap;collapsible=0;dropTarget=0;pointerEvents=1;fillColor=none;top=0;left=0;bottom=1;right=0;points=[[0,0.5],[1,0.5]];portConstraint=eastwest;" parent="87" vertex="1">
                    <mxGeometry y="760" width="550" height="50" as="geometry"/>
                </mxCell>
                <mxCell id="177" value="TestConnect()" style="shape=partialRectangle;html=1;whiteSpace=wrap;connectable=0;fillColor=none;top=0;left=0;bottom=0;right=0;overflow=hidden;pointerEvents=1;" parent="176" vertex="1">
                    <mxGeometry width="130" height="50" as="geometry">
                        <mxRectangle width="130" height="50" as="alternateBounds"/>
                    </mxGeometry>
                </mxCell>
                <mxCell id="178" value="测试是否能成功连接后台Backend实例。" style="shape=partialRectangle;html=1;whiteSpace=wrap;connectable=0;fillColor=none;top=0;left=0;bottom=0;right=0;overflow=hidden;pointerEvents=1;align=left;" parent="176" vertex="1">
                    <mxGeometry x="130" width="340" height="50" as="geometry">
                        <mxRectangle width="340" height="50" as="alternateBounds"/>
                    </mxGeometry>
                </mxCell>
                <mxCell id="179" value="&lt;span&gt;无&lt;/span&gt;" style="shape=partialRectangle;html=1;whiteSpace=wrap;connectable=0;fillColor=none;top=0;left=0;bottom=0;right=0;align=center;spacingLeft=6;overflow=hidden;pointerEvents=1;" parent="176" vertex="1">
                    <mxGeometry x="470" width="80" height="50" as="geometry">
                        <mxRectangle width="80" height="50" as="alternateBounds"/>
                    </mxGeometry>
                </mxCell>
            </root>
        </mxGraphModel>
    </diagram>
</mxfile>